<svg width="74" height="103" viewBox="0 0 74 103" fill="none" xmlns="http://www.w3.org/2000/svg">
<g clip-path="url(#clip0_855_662)">
<path fill-rule="evenodd" clip-rule="evenodd" d="M36.4185 55.7713L34.3268 52.6265C33.6678 51.5968 32.9515 50.428 32.3211 49.2869C31.1463 47.1718 29.7423 44.4723 29.1119 41.8007C27.9084 36.9026 30.8024 33.8413 33.3813 30.613C33.7824 30.1399 34.2409 29.6668 34.642 29.2215C37.3354 26.2994 41.0317 22.7649 43.8971 19.8428C46.8197 16.865 48.5676 13.6089 48.9115 8.82211C49.0834 6.31741 48.6249 0.94622 46.9344 0C47.4215 3.78488 47.5647 6.31741 46.0748 10.0745C44.3842 14.4716 41.6335 17.0876 38.3956 19.6758C35.7595 21.7909 31.4615 25.6036 29.1978 27.8578C27.7365 29.2772 25.2437 31.8932 24.2121 34.3701C22.6935 38.0993 24.2121 40.5205 25.8454 43.1365C26.619 44.3889 27.3927 45.4464 28.2523 46.5318C29.1978 47.8119 30.0861 48.7303 30.8311 49.7322C31.6334 50.7898 32.6363 51.7916 33.5532 52.8213C34.0689 53.4893 35.8168 55.3817 36.3899 55.7991L36.4185 55.7713Z" fill="white"/>
<path fill-rule="evenodd" clip-rule="evenodd" d="M67.508 88.0265C68.5396 89.752 67.508 90.4755 66.1327 91.1435C59.8862 94.1769 38.7686 94.7335 32.1783 94.8449C25.4733 94.9562 18.6825 94.65 12.1781 93.4812C11.1179 93.2864 6.47606 92.535 6.27549 91.2548C6.13222 90.4477 6.93452 89.8633 7.36432 89.5571C8.8543 88.6109 11.605 87.943 13.4675 87.5812C13.9833 87.4699 15.33 87.3307 15.7311 87.1916C12.5793 86.7185 2.60784 88.4718 0.43017 91.6722C-0.945199 93.676 1.34708 94.65 2.89437 95.151C8.65373 97.0991 20.6022 97.4887 26.9347 97.5722C36.3617 97.7113 59.0553 97.6 67.3648 91.6722C67.8519 91.3383 68.8261 90.6147 68.8834 89.9189C69.0267 89.084 68.0238 88.277 67.508 88.0543V88.0265Z" fill="white"/>
<path fill-rule="evenodd" clip-rule="evenodd" d="M40.3153 59.7789C41.3182 59.4171 44.2695 56.9124 45.0718 56.0775C46.132 54.9365 47.9085 52.8771 48.0518 50.4837C48.195 48.2851 46.7337 45.4743 45.8741 44.0828C43.0947 39.6856 40.8311 37.1531 44.642 32.255C45.9028 30.6409 47.2781 29.3607 48.8827 27.9692C50.8312 26.3272 53.983 24.0452 56.2467 22.5702L58.8255 20.8447C57.4501 21.0395 53.8398 22.5424 52.4357 23.0711C50.516 23.7947 48.3383 24.9357 46.6477 25.9654C40.917 29.4164 35.2723 34.7876 37.5932 42.1903C39.1405 47.1997 43.6964 50.2054 43.3526 53.9903C43.0947 56.3001 40.9743 58.61 40.344 59.7789H40.3153Z" fill="white"/>
<path fill-rule="evenodd" clip-rule="evenodd" d="M52.2643 84.3805C50.4878 83.6848 49.1984 82.8777 47.5938 81.9315C46.6769 81.3749 47.0207 81.4305 45.8746 81.7088C41.0894 82.9055 33.353 82.9612 28.3673 82.7664C27.1065 82.7385 23.4675 82.6272 22.7225 81.347C22.2641 80.54 22.8945 79.9834 23.1523 79.5103C19.8572 80.206 16.5334 83.0168 21.0893 85.3824C26.2183 88.0262 37.0206 88.0541 42.6367 87.0244C44.2127 86.7182 51.5193 85.0206 52.2643 84.3805Z" fill="white"/>
<path fill-rule="evenodd" clip-rule="evenodd" d="M53.7823 73.2487C52.4356 72.8869 51.2035 71.9963 50.4012 71.2727C49.6562 70.6048 49.9141 70.7996 48.3668 71.0501C42.7507 71.9963 26.0171 73.7218 21.2606 71.6624C20.6302 71.4119 19.9139 70.9944 19.8852 70.243C19.8566 69.3246 20.5443 68.8515 20.8881 68.3784C17.0485 68.8515 13.3522 72.6921 18.4812 74.5845C24.2692 76.6439 36.8195 76.6996 43.0086 75.8925C45.043 75.5864 52.2637 74.1392 53.811 73.2487H53.7823Z" fill="white"/>
<path fill-rule="evenodd" clip-rule="evenodd" d="M57.6798 60.1686C56.9348 60.1964 55.9892 60.4191 55.2442 60.5582C54.3846 60.6974 53.5823 60.8087 52.694 60.92C47.5364 61.6436 41.8344 62.2837 36.6767 62.562C32.6366 62.8125 17.4789 63.3412 15.2153 61.1427C15.0433 60.1408 16.1322 59.5285 16.8199 59.1667C19.4273 57.7474 22.2067 57.2186 24.7282 56.4116C21.2038 56.0776 12.2926 58.7214 9.08341 60.8087C5.61634 63.0351 11.4043 63.9535 13.582 64.2596C26.2755 66.0964 38.1381 65.0945 50.6883 63.2577C52.7514 62.9516 53.1525 63.0629 54.5852 62.1445C55.5881 61.4766 56.8202 60.8365 57.7084 60.1408L57.6798 60.1686Z" fill="white"/>
<path fill-rule="evenodd" clip-rule="evenodd" d="M13.7822 99.8262C17.3066 101.357 25.0431 102.331 29.0545 102.637C34.6706 103.11 40.8598 102.999 46.5045 102.609C53.7825 102.053 62.4359 101.218 68.8256 97.8503C70.3443 97.0432 73.095 95.0951 73.3529 93.2583C72.8944 93.4809 72.4933 93.9262 72.0921 94.2045C60.774 102.275 34.9572 101.496 21.6046 100.522L13.7822 99.8262Z" fill="white"/>
<path fill-rule="evenodd" clip-rule="evenodd" d="M60.2011 57.0239C62.9518 56.1055 66.1324 56.7178 67.8802 58.3319C69.8 60.0852 69.8 63.4248 68.4533 65.9852C66.6195 69.4361 62.8086 72.4696 59.5707 74.5568C59.055 74.9186 58.5105 75.1691 58.0234 75.5587C60.0578 75.336 64.9576 73.054 66.7914 71.8573C69.1697 70.3545 71.7771 68.1281 72.866 65.2616C74.4132 61.1984 72.1496 58.1093 69.7714 56.6065C68.396 55.7716 66.7341 55.2428 64.7857 55.3541C63.2957 55.4376 60.8888 56.0499 60.2298 56.9961L60.2011 57.0239Z" fill="white"/>
</g>
<defs>
<clipPath id="clip0_855_662">
<rect width="73.3816" height="102.971" fill="white"/>
</clipPath>
</defs>
</svg>
